<mxfile host="app.diagrams.net" modified="2023-12-29T02:09:10.905Z" agent="Mozilla/5.0 (Windows NT 10.0; Win64; x64) AppleWebKit/537.36 (KHTML, like Gecko) Chrome/120.0.0.0 Safari/537.36" etag="D5i4HwQ2CqzFJ1dntCii" version="22.1.15" type="google">
  <diagram name="페이지-1" id="uEryxSHzHtPZaBqVxbtr">
    <mxGraphModel grid="1" page="1" gridSize="10" guides="1" tooltips="1" connect="1" arrows="1" fold="1" pageScale="1" pageWidth="1654" pageHeight="2336" math="0" shadow="0">
      <root>
        <mxCell id="0" />
        <mxCell id="1" parent="0" />
        <mxCell id="Nrq_QT51ZjRh7xMufsW_-1" value="비회원" style="shape=umlActor;verticalLabelPosition=bottom;verticalAlign=top;html=1;outlineConnect=0;" vertex="1" parent="1">
          <mxGeometry x="80" y="290" width="30" height="60" as="geometry" />
        </mxCell>
        <mxCell id="Nrq_QT51ZjRh7xMufsW_-2" value="회원" style="shape=umlActor;verticalLabelPosition=bottom;verticalAlign=top;html=1;outlineConnect=0;" vertex="1" parent="1">
          <mxGeometry x="80" y="612.5" width="30" height="60" as="geometry" />
        </mxCell>
        <mxCell id="Nrq_QT51ZjRh7xMufsW_-88" style="edgeStyle=orthogonalEdgeStyle;rounded=0;orthogonalLoop=1;jettySize=auto;html=1;endArrow=none;endFill=0;" edge="1" parent="1" source="Nrq_QT51ZjRh7xMufsW_-4" target="Nrq_QT51ZjRh7xMufsW_-18">
          <mxGeometry relative="1" as="geometry">
            <Array as="points">
              <mxPoint x="905" y="775" />
            </Array>
          </mxGeometry>
        </mxCell>
        <mxCell id="Nrq_QT51ZjRh7xMufsW_-89" value="use" style="edgeLabel;html=1;align=center;verticalAlign=middle;resizable=0;points=[];" connectable="0" vertex="1" parent="Nrq_QT51ZjRh7xMufsW_-88">
          <mxGeometry x="-0.0653" y="-2" relative="1" as="geometry">
            <mxPoint x="-13" y="-8" as="offset" />
          </mxGeometry>
        </mxCell>
        <mxCell id="Nrq_QT51ZjRh7xMufsW_-4" value="관리자" style="shape=umlActor;verticalLabelPosition=bottom;verticalAlign=top;html=1;outlineConnect=0;" vertex="1" parent="1">
          <mxGeometry x="890" y="498.5" width="30" height="60" as="geometry" />
        </mxCell>
        <mxCell id="Nrq_QT51ZjRh7xMufsW_-5" value="넷플릭스&lt;br&gt;System" style="shape=umlFrame;whiteSpace=wrap;html=1;pointerEvents=0;width=70;height=40;" vertex="1" parent="1">
          <mxGeometry x="150" y="190" width="710" height="740" as="geometry" />
        </mxCell>
        <mxCell id="Nrq_QT51ZjRh7xMufsW_-6" value="회원가입" style="ellipse;whiteSpace=wrap;html=1;" vertex="1" parent="1">
          <mxGeometry x="220" y="245" width="60" height="50" as="geometry" />
        </mxCell>
        <mxCell id="Nrq_QT51ZjRh7xMufsW_-7" value="개인정보관리" style="ellipse;whiteSpace=wrap;html=1;" vertex="1" parent="1">
          <mxGeometry x="230" y="481" width="80" height="65" as="geometry" />
        </mxCell>
        <mxCell id="Nrq_QT51ZjRh7xMufsW_-8" value="" style="endArrow=none;html=1;rounded=0;" edge="1" parent="1" source="Nrq_QT51ZjRh7xMufsW_-1" target="Nrq_QT51ZjRh7xMufsW_-6">
          <mxGeometry width="50" height="50" relative="1" as="geometry">
            <mxPoint x="450" y="280" as="sourcePoint" />
            <mxPoint x="500" y="230" as="targetPoint" />
          </mxGeometry>
        </mxCell>
        <mxCell id="Nrq_QT51ZjRh7xMufsW_-9" value="use" style="edgeLabel;html=1;align=center;verticalAlign=middle;resizable=0;points=[];" connectable="0" vertex="1" parent="Nrq_QT51ZjRh7xMufsW_-8">
          <mxGeometry x="0.1145" y="4" relative="1" as="geometry">
            <mxPoint y="-8" as="offset" />
          </mxGeometry>
        </mxCell>
        <mxCell id="Nrq_QT51ZjRh7xMufsW_-11" value="" style="endArrow=none;html=1;rounded=0;" edge="1" parent="1" source="Nrq_QT51ZjRh7xMufsW_-2" target="Nrq_QT51ZjRh7xMufsW_-7">
          <mxGeometry width="50" height="50" relative="1" as="geometry">
            <mxPoint x="110" y="358" as="sourcePoint" />
            <mxPoint x="250" y="346" as="targetPoint" />
          </mxGeometry>
        </mxCell>
        <mxCell id="Nrq_QT51ZjRh7xMufsW_-12" value="use" style="edgeLabel;html=1;align=center;verticalAlign=middle;resizable=0;points=[];" connectable="0" vertex="1" parent="Nrq_QT51ZjRh7xMufsW_-11">
          <mxGeometry x="0.1145" y="4" relative="1" as="geometry">
            <mxPoint y="-8" as="offset" />
          </mxGeometry>
        </mxCell>
        <mxCell id="Nrq_QT51ZjRh7xMufsW_-13" value="언어선택" style="ellipse;whiteSpace=wrap;html=1;" vertex="1" parent="1">
          <mxGeometry x="220" y="355" width="60" height="50" as="geometry" />
        </mxCell>
        <mxCell id="Nrq_QT51ZjRh7xMufsW_-14" value="" style="endArrow=none;html=1;rounded=0;" edge="1" parent="1" source="Nrq_QT51ZjRh7xMufsW_-1" target="Nrq_QT51ZjRh7xMufsW_-13">
          <mxGeometry width="50" height="50" relative="1" as="geometry">
            <mxPoint x="120" y="292" as="sourcePoint" />
            <mxPoint x="260" y="280" as="targetPoint" />
          </mxGeometry>
        </mxCell>
        <mxCell id="Nrq_QT51ZjRh7xMufsW_-15" value="use" style="edgeLabel;html=1;align=center;verticalAlign=middle;resizable=0;points=[];" connectable="0" vertex="1" parent="Nrq_QT51ZjRh7xMufsW_-14">
          <mxGeometry x="0.1145" y="4" relative="1" as="geometry">
            <mxPoint y="-8" as="offset" />
          </mxGeometry>
        </mxCell>
        <mxCell id="Nrq_QT51ZjRh7xMufsW_-16" value="" style="endArrow=none;html=1;rounded=0;" edge="1" parent="1" source="Nrq_QT51ZjRh7xMufsW_-2" target="Nrq_QT51ZjRh7xMufsW_-13">
          <mxGeometry width="50" height="50" relative="1" as="geometry">
            <mxPoint x="100" y="207" as="sourcePoint" />
            <mxPoint x="253" y="273" as="targetPoint" />
          </mxGeometry>
        </mxCell>
        <mxCell id="Nrq_QT51ZjRh7xMufsW_-17" value="use" style="edgeLabel;html=1;align=center;verticalAlign=middle;resizable=0;points=[];" connectable="0" vertex="1" parent="Nrq_QT51ZjRh7xMufsW_-16">
          <mxGeometry x="0.1145" y="4" relative="1" as="geometry">
            <mxPoint y="-8" as="offset" />
          </mxGeometry>
        </mxCell>
        <mxCell id="Nrq_QT51ZjRh7xMufsW_-18" value="로그인" style="ellipse;whiteSpace=wrap;html=1;" vertex="1" parent="1">
          <mxGeometry x="460" y="750" width="60" height="50" as="geometry" />
        </mxCell>
        <mxCell id="Nrq_QT51ZjRh7xMufsW_-24" style="edgeStyle=orthogonalEdgeStyle;rounded=0;orthogonalLoop=1;jettySize=auto;html=1;entryX=1;entryY=0.5;entryDx=0;entryDy=0;endArrow=block;endFill=0;startArrow=none;startFill=0;" edge="1" parent="1" source="Nrq_QT51ZjRh7xMufsW_-21" target="Nrq_QT51ZjRh7xMufsW_-7">
          <mxGeometry relative="1" as="geometry" />
        </mxCell>
        <mxCell id="Nrq_QT51ZjRh7xMufsW_-21" value="회원조회" style="ellipse;whiteSpace=wrap;html=1;" vertex="1" parent="1">
          <mxGeometry x="370" y="476" width="60" height="50" as="geometry" />
        </mxCell>
        <mxCell id="Nrq_QT51ZjRh7xMufsW_-25" style="edgeStyle=orthogonalEdgeStyle;rounded=0;orthogonalLoop=1;jettySize=auto;html=1;entryX=1;entryY=0.5;entryDx=0;entryDy=0;endArrow=block;endFill=0;startArrow=none;startFill=0;" edge="1" parent="1" source="Nrq_QT51ZjRh7xMufsW_-22" target="Nrq_QT51ZjRh7xMufsW_-7">
          <mxGeometry relative="1" as="geometry" />
        </mxCell>
        <mxCell id="Nrq_QT51ZjRh7xMufsW_-22" value="회원수정" style="ellipse;whiteSpace=wrap;html=1;" vertex="1" parent="1">
          <mxGeometry x="370" y="536" width="60" height="50" as="geometry" />
        </mxCell>
        <mxCell id="Nrq_QT51ZjRh7xMufsW_-26" style="edgeStyle=orthogonalEdgeStyle;rounded=0;orthogonalLoop=1;jettySize=auto;html=1;entryX=1;entryY=0.5;entryDx=0;entryDy=0;endArrow=block;endFill=0;startArrow=none;startFill=0;" edge="1" parent="1" source="Nrq_QT51ZjRh7xMufsW_-23" target="Nrq_QT51ZjRh7xMufsW_-7">
          <mxGeometry relative="1" as="geometry" />
        </mxCell>
        <mxCell id="Nrq_QT51ZjRh7xMufsW_-23" value="회원탈퇴" style="ellipse;whiteSpace=wrap;html=1;" vertex="1" parent="1">
          <mxGeometry x="370" y="600" width="60" height="50" as="geometry" />
        </mxCell>
        <mxCell id="Nrq_QT51ZjRh7xMufsW_-28" value="검색" style="ellipse;whiteSpace=wrap;html=1;" vertex="1" parent="1">
          <mxGeometry x="202.5" y="600" width="70" height="50" as="geometry" />
        </mxCell>
        <mxCell id="Nrq_QT51ZjRh7xMufsW_-29" value="영상보관함" style="ellipse;whiteSpace=wrap;html=1;" vertex="1" parent="1">
          <mxGeometry x="202.5" y="670" width="70" height="50" as="geometry" />
        </mxCell>
        <mxCell id="Nrq_QT51ZjRh7xMufsW_-30" value="영상조회" style="ellipse;whiteSpace=wrap;html=1;" vertex="1" parent="1">
          <mxGeometry x="200" y="740" width="75" height="50" as="geometry" />
        </mxCell>
        <mxCell id="Nrq_QT51ZjRh7xMufsW_-31" value="" style="endArrow=none;html=1;rounded=0;" edge="1" parent="1" source="Nrq_QT51ZjRh7xMufsW_-2" target="Nrq_QT51ZjRh7xMufsW_-28">
          <mxGeometry width="50" height="50" relative="1" as="geometry">
            <mxPoint x="100" y="517" as="sourcePoint" />
            <mxPoint x="240" y="522" as="targetPoint" />
          </mxGeometry>
        </mxCell>
        <mxCell id="Nrq_QT51ZjRh7xMufsW_-32" value="use" style="edgeLabel;html=1;align=center;verticalAlign=middle;resizable=0;points=[];" connectable="0" vertex="1" parent="Nrq_QT51ZjRh7xMufsW_-31">
          <mxGeometry x="0.1145" y="4" relative="1" as="geometry">
            <mxPoint y="-8" as="offset" />
          </mxGeometry>
        </mxCell>
        <mxCell id="Nrq_QT51ZjRh7xMufsW_-33" value="" style="endArrow=none;html=1;rounded=0;" edge="1" parent="1" source="Nrq_QT51ZjRh7xMufsW_-2" target="Nrq_QT51ZjRh7xMufsW_-29">
          <mxGeometry width="50" height="50" relative="1" as="geometry">
            <mxPoint x="80" y="617.5" as="sourcePoint" />
            <mxPoint x="244" y="772.5" as="targetPoint" />
          </mxGeometry>
        </mxCell>
        <mxCell id="Nrq_QT51ZjRh7xMufsW_-34" value="use" style="edgeLabel;html=1;align=center;verticalAlign=middle;resizable=0;points=[];" connectable="0" vertex="1" parent="Nrq_QT51ZjRh7xMufsW_-33">
          <mxGeometry x="0.1145" y="4" relative="1" as="geometry">
            <mxPoint y="-8" as="offset" />
          </mxGeometry>
        </mxCell>
        <mxCell id="Nrq_QT51ZjRh7xMufsW_-35" value="" style="endArrow=none;html=1;rounded=0;" edge="1" parent="1" source="Nrq_QT51ZjRh7xMufsW_-2" target="Nrq_QT51ZjRh7xMufsW_-30">
          <mxGeometry width="50" height="50" relative="1" as="geometry">
            <mxPoint x="69.5" y="610" as="sourcePoint" />
            <mxPoint x="237.5" y="828" as="targetPoint" />
          </mxGeometry>
        </mxCell>
        <mxCell id="Nrq_QT51ZjRh7xMufsW_-36" value="use" style="edgeLabel;html=1;align=center;verticalAlign=middle;resizable=0;points=[];" connectable="0" vertex="1" parent="Nrq_QT51ZjRh7xMufsW_-35">
          <mxGeometry x="0.1145" y="4" relative="1" as="geometry">
            <mxPoint y="-8" as="offset" />
          </mxGeometry>
        </mxCell>
        <mxCell id="Nrq_QT51ZjRh7xMufsW_-37" value="구독신청" style="ellipse;whiteSpace=wrap;html=1;" vertex="1" parent="1">
          <mxGeometry x="202.5" y="845" width="75" height="50" as="geometry" />
        </mxCell>
        <mxCell id="Nrq_QT51ZjRh7xMufsW_-38" value="" style="endArrow=none;html=1;rounded=0;" edge="1" parent="1" source="Nrq_QT51ZjRh7xMufsW_-2" target="Nrq_QT51ZjRh7xMufsW_-37">
          <mxGeometry width="50" height="50" relative="1" as="geometry">
            <mxPoint x="69" y="694.5" as="sourcePoint" />
            <mxPoint x="240" y="975.5" as="targetPoint" />
          </mxGeometry>
        </mxCell>
        <mxCell id="Nrq_QT51ZjRh7xMufsW_-39" value="use" style="edgeLabel;html=1;align=center;verticalAlign=middle;resizable=0;points=[];" connectable="0" vertex="1" parent="Nrq_QT51ZjRh7xMufsW_-38">
          <mxGeometry x="0.1145" y="4" relative="1" as="geometry">
            <mxPoint y="-8" as="offset" />
          </mxGeometry>
        </mxCell>
        <mxCell id="Nrq_QT51ZjRh7xMufsW_-43" style="edgeStyle=orthogonalEdgeStyle;rounded=0;orthogonalLoop=1;jettySize=auto;html=1;endArrow=none;endFill=0;" edge="1" parent="1" source="Nrq_QT51ZjRh7xMufsW_-40" target="Nrq_QT51ZjRh7xMufsW_-42">
          <mxGeometry relative="1" as="geometry" />
        </mxCell>
        <mxCell id="Nrq_QT51ZjRh7xMufsW_-40" value="결제방식" style="ellipse;whiteSpace=wrap;html=1;" vertex="1" parent="1">
          <mxGeometry x="412.5" y="845" width="75" height="50" as="geometry" />
        </mxCell>
        <mxCell id="Nrq_QT51ZjRh7xMufsW_-41" value="" style="endArrow=open;dashed=1;html=1;rounded=0;endFill=0;" edge="1" parent="1" source="Nrq_QT51ZjRh7xMufsW_-37" target="Nrq_QT51ZjRh7xMufsW_-40">
          <mxGeometry width="50" height="50" relative="1" as="geometry">
            <mxPoint x="270" y="910" as="sourcePoint" />
            <mxPoint x="320" y="860" as="targetPoint" />
          </mxGeometry>
        </mxCell>
        <mxCell id="Nrq_QT51ZjRh7xMufsW_-56" value="&amp;lt;&amp;lt;include&amp;gt;&amp;gt;" style="edgeLabel;html=1;align=center;verticalAlign=middle;resizable=0;points=[];" connectable="0" vertex="1" parent="Nrq_QT51ZjRh7xMufsW_-41">
          <mxGeometry x="0.446" y="-3" relative="1" as="geometry">
            <mxPoint x="-44" y="-18" as="offset" />
          </mxGeometry>
        </mxCell>
        <mxCell id="Nrq_QT51ZjRh7xMufsW_-42" value="결제시스템" style="rounded=0;whiteSpace=wrap;html=1;" vertex="1" parent="1">
          <mxGeometry x="890" y="840" width="120" height="60" as="geometry" />
        </mxCell>
        <mxCell id="Nrq_QT51ZjRh7xMufsW_-46" value="" style="endArrow=open;dashed=1;html=1;rounded=0;endFill=0;" edge="1" parent="1" source="Nrq_QT51ZjRh7xMufsW_-7" target="Nrq_QT51ZjRh7xMufsW_-18">
          <mxGeometry width="50" height="50" relative="1" as="geometry">
            <mxPoint x="680" y="560" as="sourcePoint" />
            <mxPoint x="730" y="510" as="targetPoint" />
            <Array as="points">
              <mxPoint x="370" y="770" />
            </Array>
          </mxGeometry>
        </mxCell>
        <mxCell id="Nrq_QT51ZjRh7xMufsW_-47" value="" style="endArrow=open;dashed=1;html=1;rounded=0;endFill=0;" edge="1" parent="1" source="Nrq_QT51ZjRh7xMufsW_-28" target="Nrq_QT51ZjRh7xMufsW_-18">
          <mxGeometry width="50" height="50" relative="1" as="geometry">
            <mxPoint x="303" y="550" as="sourcePoint" />
            <mxPoint x="483" y="765" as="targetPoint" />
            <Array as="points">
              <mxPoint x="370" y="770" />
            </Array>
          </mxGeometry>
        </mxCell>
        <mxCell id="Nrq_QT51ZjRh7xMufsW_-48" value="" style="endArrow=open;dashed=1;html=1;rounded=0;endFill=0;" edge="1" parent="1" source="Nrq_QT51ZjRh7xMufsW_-29" target="Nrq_QT51ZjRh7xMufsW_-18">
          <mxGeometry width="50" height="50" relative="1" as="geometry">
            <mxPoint x="316" y="717" as="sourcePoint" />
            <mxPoint x="473" y="775" as="targetPoint" />
            <Array as="points">
              <mxPoint x="370" y="770" />
            </Array>
          </mxGeometry>
        </mxCell>
        <mxCell id="Nrq_QT51ZjRh7xMufsW_-49" value="" style="endArrow=open;dashed=1;html=1;rounded=0;endFill=0;" edge="1" parent="1" source="Nrq_QT51ZjRh7xMufsW_-30" target="Nrq_QT51ZjRh7xMufsW_-18">
          <mxGeometry width="50" height="50" relative="1" as="geometry">
            <mxPoint x="320" y="777" as="sourcePoint" />
            <mxPoint x="470" y="784" as="targetPoint" />
            <Array as="points">
              <mxPoint x="370" y="770" />
            </Array>
          </mxGeometry>
        </mxCell>
        <mxCell id="Nrq_QT51ZjRh7xMufsW_-50" value="" style="endArrow=open;dashed=1;html=1;rounded=0;endFill=0;" edge="1" parent="1" source="Nrq_QT51ZjRh7xMufsW_-37" target="Nrq_QT51ZjRh7xMufsW_-18">
          <mxGeometry width="50" height="50" relative="1" as="geometry">
            <mxPoint x="320" y="835" as="sourcePoint" />
            <mxPoint x="472" y="793" as="targetPoint" />
            <Array as="points">
              <mxPoint x="370" y="770" />
            </Array>
          </mxGeometry>
        </mxCell>
        <mxCell id="Nrq_QT51ZjRh7xMufsW_-51" value="&amp;lt;&amp;lt;include&amp;gt;&amp;gt;" style="edgeLabel;html=1;align=center;verticalAlign=middle;resizable=0;points=[];" connectable="0" vertex="1" parent="Nrq_QT51ZjRh7xMufsW_-50">
          <mxGeometry x="0.5191" y="-5" relative="1" as="geometry">
            <mxPoint x="20" y="-16" as="offset" />
          </mxGeometry>
        </mxCell>
        <mxCell id="Nrq_QT51ZjRh7xMufsW_-57" value="회원관리" style="ellipse;whiteSpace=wrap;html=1;" vertex="1" parent="1">
          <mxGeometry x="737.5" y="365" width="80" height="65" as="geometry" />
        </mxCell>
        <mxCell id="Nrq_QT51ZjRh7xMufsW_-58" value="" style="endArrow=none;html=1;rounded=0;" edge="1" parent="1" source="Nrq_QT51ZjRh7xMufsW_-57" target="Nrq_QT51ZjRh7xMufsW_-4">
          <mxGeometry width="50" height="50" relative="1" as="geometry">
            <mxPoint x="620" y="780" as="sourcePoint" />
            <mxPoint x="670" y="730" as="targetPoint" />
          </mxGeometry>
        </mxCell>
        <mxCell id="Nrq_QT51ZjRh7xMufsW_-59" value="use" style="edgeLabel;html=1;align=center;verticalAlign=middle;resizable=0;points=[];" connectable="0" vertex="1" parent="Nrq_QT51ZjRh7xMufsW_-58">
          <mxGeometry x="0.1167" y="2" relative="1" as="geometry">
            <mxPoint x="-1" y="-10" as="offset" />
          </mxGeometry>
        </mxCell>
        <mxCell id="Nrq_QT51ZjRh7xMufsW_-60" value="영상관리" style="ellipse;whiteSpace=wrap;html=1;" vertex="1" parent="1">
          <mxGeometry x="720" y="610" width="80" height="65" as="geometry" />
        </mxCell>
        <mxCell id="Nrq_QT51ZjRh7xMufsW_-61" value="" style="endArrow=none;html=1;rounded=0;" edge="1" parent="1" source="Nrq_QT51ZjRh7xMufsW_-60" target="Nrq_QT51ZjRh7xMufsW_-4">
          <mxGeometry width="50" height="50" relative="1" as="geometry">
            <mxPoint x="922" y="392" as="sourcePoint" />
            <mxPoint x="1090" y="494" as="targetPoint" />
          </mxGeometry>
        </mxCell>
        <mxCell id="Nrq_QT51ZjRh7xMufsW_-62" value="use" style="edgeLabel;html=1;align=center;verticalAlign=middle;resizable=0;points=[];" connectable="0" vertex="1" parent="Nrq_QT51ZjRh7xMufsW_-61">
          <mxGeometry x="0.1167" y="2" relative="1" as="geometry">
            <mxPoint x="-1" y="-10" as="offset" />
          </mxGeometry>
        </mxCell>
        <mxCell id="Nrq_QT51ZjRh7xMufsW_-68" style="edgeStyle=orthogonalEdgeStyle;rounded=0;orthogonalLoop=1;jettySize=auto;html=1;endArrow=block;endFill=0;" edge="1" parent="1" source="Nrq_QT51ZjRh7xMufsW_-63" target="Nrq_QT51ZjRh7xMufsW_-57">
          <mxGeometry relative="1" as="geometry">
            <Array as="points">
              <mxPoint x="667.5" y="290" />
              <mxPoint x="667.5" y="397" />
            </Array>
          </mxGeometry>
        </mxCell>
        <mxCell id="Nrq_QT51ZjRh7xMufsW_-63" value="회원조회" style="ellipse;whiteSpace=wrap;html=1;" vertex="1" parent="1">
          <mxGeometry x="572.5" y="265" width="60" height="50" as="geometry" />
        </mxCell>
        <mxCell id="Nrq_QT51ZjRh7xMufsW_-67" style="edgeStyle=orthogonalEdgeStyle;rounded=0;orthogonalLoop=1;jettySize=auto;html=1;endArrow=block;endFill=0;" edge="1" parent="1" source="Nrq_QT51ZjRh7xMufsW_-64" target="Nrq_QT51ZjRh7xMufsW_-57">
          <mxGeometry relative="1" as="geometry">
            <Array as="points">
              <mxPoint x="607.5" y="397" />
              <mxPoint x="607.5" y="397" />
            </Array>
          </mxGeometry>
        </mxCell>
        <mxCell id="Nrq_QT51ZjRh7xMufsW_-64" value="회원수정" style="ellipse;whiteSpace=wrap;html=1;" vertex="1" parent="1">
          <mxGeometry x="572.5" y="372.5" width="60" height="50" as="geometry" />
        </mxCell>
        <mxCell id="Nrq_QT51ZjRh7xMufsW_-69" style="edgeStyle=orthogonalEdgeStyle;rounded=0;orthogonalLoop=1;jettySize=auto;html=1;endArrow=block;endFill=0;" edge="1" parent="1" source="Nrq_QT51ZjRh7xMufsW_-65" target="Nrq_QT51ZjRh7xMufsW_-57">
          <mxGeometry relative="1" as="geometry">
            <Array as="points">
              <mxPoint x="667.5" y="473" />
              <mxPoint x="667.5" y="398" />
            </Array>
          </mxGeometry>
        </mxCell>
        <mxCell id="Nrq_QT51ZjRh7xMufsW_-65" value="회원삭제" style="ellipse;whiteSpace=wrap;html=1;" vertex="1" parent="1">
          <mxGeometry x="572.5" y="448.5" width="60" height="50" as="geometry" />
        </mxCell>
        <mxCell id="Nrq_QT51ZjRh7xMufsW_-72" style="edgeStyle=orthogonalEdgeStyle;rounded=0;orthogonalLoop=1;jettySize=auto;html=1;endArrow=block;endFill=0;" edge="1" parent="1" source="Nrq_QT51ZjRh7xMufsW_-70" target="Nrq_QT51ZjRh7xMufsW_-63">
          <mxGeometry relative="1" as="geometry">
            <mxPoint x="497.5" y="287.5" as="targetPoint" />
            <Array as="points">
              <mxPoint x="537.5" y="248" />
              <mxPoint x="537.5" y="288" />
            </Array>
          </mxGeometry>
        </mxCell>
        <mxCell id="Nrq_QT51ZjRh7xMufsW_-70" value="키워드" style="ellipse;whiteSpace=wrap;html=1;" vertex="1" parent="1">
          <mxGeometry x="440" y="222.5" width="60" height="50" as="geometry" />
        </mxCell>
        <mxCell id="Nrq_QT51ZjRh7xMufsW_-73" value="" style="edgeStyle=orthogonalEdgeStyle;rounded=0;orthogonalLoop=1;jettySize=auto;html=1;endArrow=block;endFill=0;" edge="1" parent="1" source="Nrq_QT51ZjRh7xMufsW_-71" target="Nrq_QT51ZjRh7xMufsW_-63">
          <mxGeometry relative="1" as="geometry">
            <mxPoint x="497.5" y="287.5" as="targetPoint" />
            <Array as="points">
              <mxPoint x="537.5" y="332" />
              <mxPoint x="537.5" y="288" />
            </Array>
          </mxGeometry>
        </mxCell>
        <mxCell id="Nrq_QT51ZjRh7xMufsW_-71" value="전체" style="ellipse;whiteSpace=wrap;html=1;" vertex="1" parent="1">
          <mxGeometry x="440" y="307.5" width="60" height="50" as="geometry" />
        </mxCell>
        <mxCell id="Nrq_QT51ZjRh7xMufsW_-81" style="edgeStyle=orthogonalEdgeStyle;rounded=0;orthogonalLoop=1;jettySize=auto;html=1;entryX=0;entryY=0.5;entryDx=0;entryDy=0;endArrow=block;endFill=0;" edge="1" parent="1" source="Nrq_QT51ZjRh7xMufsW_-77" target="Nrq_QT51ZjRh7xMufsW_-60">
          <mxGeometry relative="1" as="geometry" />
        </mxCell>
        <mxCell id="Nrq_QT51ZjRh7xMufsW_-77" value="영상게시" style="ellipse;whiteSpace=wrap;html=1;" vertex="1" parent="1">
          <mxGeometry x="560" y="546" width="80" height="50" as="geometry" />
        </mxCell>
        <mxCell id="Nrq_QT51ZjRh7xMufsW_-82" style="edgeStyle=orthogonalEdgeStyle;rounded=0;orthogonalLoop=1;jettySize=auto;html=1;endArrow=block;endFill=0;" edge="1" parent="1" source="Nrq_QT51ZjRh7xMufsW_-78" target="Nrq_QT51ZjRh7xMufsW_-60">
          <mxGeometry relative="1" as="geometry" />
        </mxCell>
        <mxCell id="Nrq_QT51ZjRh7xMufsW_-78" value="영상수정" style="ellipse;whiteSpace=wrap;html=1;" vertex="1" parent="1">
          <mxGeometry x="560" y="617.5" width="80" height="50" as="geometry" />
        </mxCell>
        <mxCell id="Nrq_QT51ZjRh7xMufsW_-83" style="edgeStyle=orthogonalEdgeStyle;rounded=0;orthogonalLoop=1;jettySize=auto;html=1;entryX=0;entryY=0.5;entryDx=0;entryDy=0;endArrow=block;endFill=0;" edge="1" parent="1" source="Nrq_QT51ZjRh7xMufsW_-79" target="Nrq_QT51ZjRh7xMufsW_-60">
          <mxGeometry relative="1" as="geometry" />
        </mxCell>
        <mxCell id="Nrq_QT51ZjRh7xMufsW_-79" value="영상삭제" style="ellipse;whiteSpace=wrap;html=1;" vertex="1" parent="1">
          <mxGeometry x="560" y="690" width="80" height="50" as="geometry" />
        </mxCell>
      </root>
    </mxGraphModel>
  </diagram>
</mxfile>
